<?xml version="1.0" encoding="utf-8"?>
<svg viewBox="0 0 300 500" xmlns="http://www.w3.org/2000/svg">
  <path style="stroke: rgb(0, 0, 0);" d="M 130 100 C 70 100 0 150 0 210 L 0 280 C 0 300 0 400 100 400 L 170 400 C 230 400 300 350 300 290 L 300 220 C 300 200 300 100 200 100 L 130 100 Z" transform="matrix(-1, 0, 0, -1, 300, 500)"/>
  <g>
    <path style="stroke: rgb(0, 0, 0); fill: rgb(207, 145, 23);" d="M 142 100 L 142 400 L 158 400 L 158 100 L 142 100 Z"/>
    <path style="stroke: rgb(0, 0, 0); fill: rgb(207, 23, 23);" d="M 158 100 L 198 200 L 208 200 L 168 100 L 158 100 Z"/>
    <path style="stroke: rgb(0, 0, 0); fill: rgb(207, 23, 23);" d="M 92 200 L 132 100 L 142 100 L 102 200 L 92 200 Z"/>
    <path style="stroke: rgb(0, 0, 0); fill: rgb(207, 23, 23);" d="M 158 400 L 198 300 L 208 300 L 168 400 L 158 400 Z"/>
    <path style="stroke: rgb(0, 0, 0); fill: rgb(207, 23, 23);" d="M 92 300 L 132 400 L 142 400 L 102 300 L 92 300 Z"/>
  </g>
  <g>
    <path style="stroke: rgb(0, 0, 0);" d="M 100 100 C 100 84.586 101.77 66.104 114.026 64.079 L 119.944 90.885"/>
    <path style="stroke: rgb(0, 0, 0); fill: rgb(255, 255, 255);" d="M 107.765 97.026 C 108.483 88.685 107.179 77.815 114.129 72.29 L 119.239 92.442 L 107.765 97.026 Z"/>
    <path style="stroke: rgb(0, 0, 0); fill: rgb(255, 255, 255);" d="M 114.847 82.143 C 113.13 82.906 112.876 94.846 113.513 94.563"/>
    <path style="stroke: rgb(0, 0, 0); fill: rgb(207, 145, 23);" d="M 188.534 88.007 C 191.577 74.089 161.28 65.807 126.399 76.953 C 76.437 92.918 90.325 97.491 96.397 121.39 C 98.543 129.837 181.568 94.759 188.534 88.007 Z" transform="matrix(-1, 0, 0, -1, 278.664757, 194.463005)"/>
    <path style="stroke: rgb(0, 0, 0); fill: rgb(255, 255, 255);" d="M 126.218 99.91 C 126.683 100.466 124.452 98.399 124.587 95.017 C 124.722 91.639 122.146 88.593 117.102 86.14 L 116.799 96.162 L 126.218 99.91 Z" transform="matrix(-1, 0, 0, -1, 243.080879, 186.140015)"/>
    <path style="stroke: rgb(0, 0, 0); fill: rgb(255, 255, 255);" d="M 179.485 70.273 L 179.631 58.581 C 180.488 57.715 164.982 60.461 147.769 73.03 C 135.7 81.843 128.912 84.558 126.068 84.639 L 131.251 100.147 L 179.485 70.273 Z" transform="matrix(-1, 0, 0, -1, 305.732933, 158.581604)"/>
    <path style="stroke: rgb(0, 0, 0); fill: rgb(255, 255, 255);" d="M 128.345 90.21 L 114.2 43.584 C 118.066 33.947 162.274 3.542 171.099 14.255 C 173.93 17.693 173.599 23.541 174.145 28.688 C 174.091 44.049 173.345 90.21 173.345 90.21 L 128.345 90.21 Z" transform="matrix(-1, 0, 0, -1, 288.345001, 102.209507)"/>
    <ellipse style="stroke: rgb(0, 0, 0); stroke-width: 0px;" cx="-122.676" cy="50" rx="5" ry="5" class="eye" transform="matrix(-1, 0, 0, 1, 0, 0)"/>
    <ellipse style="stroke: rgb(0, 0, 0); paint-order: stroke; stroke-width: 0px;" cx="-150.676" cy="50" rx="5" ry="5" class="eye" transform="matrix(-1, 0, 0, 1, 0, 0)"/>
    <path style="stroke: rgb(0, 0, 0); stroke-width: 2px; fill: rgb(255, 255, 255);" d="M 130.449 58.825 C 130.276 47.459 143.73 46.561 142.609 59.124" transform="matrix(-1, 0, 0, -1, 273.122711, 109.123722)"/>
    <path style="fill: rgb(216, 216, 216); stroke: rgb(0, 0, 0); fill-opacity: 0;" d="M 115 18 C 116 18 119 15 119 12"/>
    <path style="fill: rgb(216, 216, 216); stroke: rgb(0, 0, 0); fill-opacity: 0;" d="M 123 12 C 123 18 117 24 115 24"/>
    <path style="fill: rgb(216, 216, 216); stroke: rgb(0, 0, 0); fill-opacity: 0;" d="M 127 12 C 127 21 118 30 115 30"/>
    <path style="stroke: rgb(0, 0, 0); fill: rgb(255, 255, 255); fill-opacity: 0;" d="M 131 12 C 131 24 119 36 115 36"/>
    <path style="stroke: rgb(0, 0, 0); fill-opacity: 0; fill: rgb(255, 255, 255);" d="M 156 12 C 157 12 161.592 14.236 161.592 18.236" transform="matrix(-1, 0, 0, -1, 317.591995, 30.236)"/>
    <path style="stroke: rgb(0, 0, 0); fill: rgb(255, 255, 255); fill-opacity: 0;" d="M 164.175 24.236 C 164.175 16.236 154 12 152 12" transform="matrix(-1, 0, 0, -1, 316.175003, 36.236)"/>
    <path style="stroke: rgb(0, 0, 0); fill-opacity: 0; fill: rgb(255, 255, 255);" d="M 164.88 29.531 C 164.88 17.531 151 12 148 12" transform="matrix(-1, 0, 0, -1, 312.880005, 41.531)"/>
    <path style="stroke: rgb(0, 0, 0); fill-opacity: 0;" d="M 166.993 35.531 C 166.993 19.531 148 12 144 12" transform="matrix(-1, 0, 0, -1, 310.992996, 47.530998)"/>
    <path style="stroke: rgb(0, 0, 0); fill-opacity: 0; fill: rgb(255, 255, 255);" d="M 140 12 C 140 32 161.8 40 168.8 40"/>
    <path style="stroke: rgb(0, 0, 0); fill: rgb(255, 255, 255);" d="M 167.957 39.985 C 154.685 44.409 163.533 71.175 176.805 66.751"/>
    <path style="stroke: rgb(0, 0, 0); fill: rgb(255, 255, 255);" d="M 169.284 43.525 C 161.026 45.884 167.662 66.013 175.92 63.654"/>
    <path style="stroke: rgb(0, 0, 0); fill: rgb(255, 255, 255);" d="M 171.054 47.949 C 166.501 49.246 171.962 61.113 175.257 60.557"/>
    <g transform="matrix(1.162629, 0, 0, 1.200445, -17.655548, 19.278816)" style="">
      <path style="stroke: rgb(0, 0, 0); fill: rgb(255, 255, 255);" d="M 167.957 39.985 C 154.685 44.409 163.533 71.175 176.805 66.751"/>
      <path style="stroke: rgb(0, 0, 0); fill: rgb(255, 255, 255);" d="M 169.284 43.525 C 161.026 45.884 167.662 66.013 175.92 63.654"/>
      <path style="stroke: rgb(0, 0, 0); fill: rgb(255, 255, 255);" d="M 171.054 47.949 C 166.501 49.246 171.962 61.113 175.257 60.557"/>
    </g>
    <g>
      <path style="stroke: rgb(0, 0, 0); fill: rgb(207, 23, 23);" d="M 165 0 L 173 0 L 188 40 L 180 39.779 L 165 0 Z"/>
      <path style="stroke: rgb(0, 0, 0); fill: rgb(207, 145, 23);" d="M 173 0 L 188 40 L 200 45 C 200 45 193 20 193 0 L 173 0 Z"/>
      <path style="stroke: rgb(0, 0, 0); fill: rgb(28, 23, 23);" d="M 115 12 L 115 0 L 166.37 0 L 200 100 L 188 100 L 158.6 12 L 115 12 Z"/>
    </g>
  </g>
  <g>
    <path style="stroke: rgb(0, 0, 0);" d="M 180.06 436.558 C 180.06 421.144 181.828 402.027 194.084 400.002 L 200.825 427.188 L 180.06 436.558 Z" transform="matrix(-1, 0, 0, -1, 380.059998, 835.925018)"/>
    <path style="stroke: rgb(0, 0, 0); fill: rgb(255, 255, 255);" d="M 197.853 422.276 L 185.871 427.71 C 186.589 419.369 185.285 408.499 192.235 402.974 L 197.853 422.276 Z" transform="matrix(-1, 0, 0, -1, 378.106003, 830.68399)"/>
    <path style="stroke: rgb(0, 0, 0); fill: rgb(255, 255, 255);" d="M 186.806 405.432 C 185.089 406.195 184.835 418.135 185.472 417.852" transform="matrix(-1, 0, 0, -1, 371.958893, 823.28894)"/>
    <path style="stroke: rgb(0, 0, 0); fill: rgb(207, 146, 23);" d="M 209.869 393.544 C 212.912 379.626 182.615 371.344 147.734 382.49 C 97.772 398.455 111.66 403.028 117.732 426.927 C 119.878 435.374 202.903 400.296 209.869 393.544 Z"/>
    <path style="stroke: rgb(0, 0, 0); fill: rgb(255, 255, 255);" d="M 183.139 413.772 C 183.604 414.328 181.373 412.261 181.508 408.879 C 181.643 405.501 179.067 402.455 174.023 400.002 L 173.72 410.024 L 183.139 413.772 Z"/>
    <path style="stroke: rgb(0, 0, 0); fill: rgb(255, 255, 255);" d="M 173.752 411.693 L 173.898 400.001 C 174.755 399.135 159.249 401.881 142.036 414.45 C 129.967 423.263 123.179 425.978 120.335 426.059 L 125.518 441.567 L 173.752 411.693 Z"/>
    <path style="stroke: rgb(0, 0, 0); fill: rgb(255, 255, 255);" d="M 140 488.002 L 125.855 441.376 C 129.721 431.739 173.929 401.334 182.754 412.047 C 185.585 415.485 185.254 421.333 185.8 426.48 C 185.746 441.841 185 488.002 185 488.002 L 140 488.002 Z"/>
    <ellipse style="stroke: rgb(0, 0, 0); stroke-width: 0px;" cx="177.324" cy="-450.002" rx="5" ry="5" class="eye" transform="matrix(1, 0, 0, -1, 0, 0)"/>
    <ellipse style="stroke: rgb(0, 0, 0); paint-order: stroke; stroke-width: 0px;" cx="149.324" cy="-450.002" rx="5" ry="5" class="eye" transform="matrix(1, 0, 0, -1, 0, 0)"/>
    <path style="stroke: rgb(0, 0, 0); stroke-width: 2px; fill: rgb(255, 255, 255);" d="M 157.327 449.703 C 157.154 438.337 170.608 437.439 169.487 450.002"/>
    <path style="fill: rgb(216, 216, 216); stroke: rgb(0, 0, 0); fill-opacity: 0;" d="M 181 488 C 182 488 185 485 185 482" transform="matrix(-1, 0, 0, -1, 366, 970)"/>
    <path style="fill: rgb(216, 216, 216); stroke: rgb(0, 0, 0); fill-opacity: 0;" d="M 185 476 C 185 482 179 488 177 488" transform="matrix(-1, 0, 0, -1, 362, 964)"/>
    <path style="fill: rgb(216, 216, 216); stroke: rgb(0, 0, 0); fill-opacity: 0;" d="M 185 470 C 185 479 176 488 173 488" transform="matrix(-1, 0, 0, -1, 358, 958)"/>
    <path style="stroke: rgb(0, 0, 0); fill: rgb(255, 255, 255); fill-opacity: 0;" d="M 185 464 C 185 476 173 488 169 488" transform="matrix(-1, 0, 0, -1, 354, 952)"/>
    <path style="stroke: rgb(0, 0, 0); fill-opacity: 0; fill: rgb(255, 255, 255);" d="M 138.408 481.764 C 139.408 481.764 144 484 144 488"/>
    <path style="stroke: rgb(0, 0, 0); fill: rgb(255, 255, 255); fill-opacity: 0;" d="M 148.002 488.002 C 148.002 480.002 137.827 475.766 135.827 475.766"/>
    <path style="stroke: rgb(0, 0, 0); fill-opacity: 0; fill: rgb(255, 255, 255);" d="M 152.002 488.002 C 152.002 476.002 138.122 470.471 135.122 470.471"/>
    <path style="stroke: rgb(0, 0, 0); fill-opacity: 0;" d="M 156 488 C 156 472 137.007 464.469 133.007 464.469"/>
    <path style="stroke: rgb(0, 0, 0); fill-opacity: 0; fill: rgb(255, 255, 255);" d="M 131.2 460 C 131.2 480 153 488 160 488" transform="matrix(-1, 0, 0, -1, 291.199997, 948)"/>
    <path style="stroke: rgb(0, 0, 0); fill: rgb(255, 255, 255);" d="M 129.761 432.759 C 116.489 437.183 125.337 463.949 138.609 459.525" transform="matrix(-1, 0, 0, -1, 261.804687, 892.775726)"/>
    <path style="stroke: rgb(0, 0, 0); fill: rgb(255, 255, 255);" d="M 127.868 436.156 C 119.61 438.515 126.246 458.644 134.504 456.285" transform="matrix(-1, 0, 0, -1, 258.584351, 892.632874)"/>
    <path style="stroke: rgb(0, 0, 0); fill: rgb(255, 255, 255);" d="M 126.48 439.426 C 121.927 440.723 127.388 452.59 130.683 452.034" transform="matrix(-1, 0, 0, -1, 255.42527, 891.478912)"/>
    <g transform="matrix(-1.162629, 0, 0, -1.200445, 317.655762, 480.722595)" style="">
      <path style="stroke: rgb(0, 0, 0); fill: rgb(255, 255, 255);" d="M 167.957 39.985 C 154.685 44.409 163.533 71.175 176.805 66.751"/>
      <path style="stroke: rgb(0, 0, 0); fill: rgb(255, 255, 255);" d="M 169.284 43.525 C 161.026 45.884 167.662 66.013 175.92 63.654"/>
      <path style="stroke: rgb(0, 0, 0); fill: rgb(255, 255, 255);" d="M 171.054 47.949 C 166.501 49.246 171.962 61.113 175.257 60.557"/>
    </g>
  </g>
  <g>
    <path style="stroke: rgb(0, 0, 0); fill: rgb(207, 23, 23);" d="M 112 460 L 120 460 L 135 500 L 127 499.779 L 112 460 Z" transform="matrix(-1, 0, 0, -1, 247, 960)"/>
    <path style="stroke: rgb(0, 0, 0); fill: rgb(207, 145, 23);" d="M 100 455 L 115 495 L 127 500 C 127 500 120 475 120 455 L 100 455 Z" transform="matrix(-1, 0, 0, -1, 227, 955)"/>
    <path style="stroke: rgb(0, 0, 0); fill: rgb(28, 23, 23);" d="M 100 412 L 100 400 L 151.37 400 L 185 500 L 173 500 L 143.6 412 L 100 412 Z" transform="matrix(-1, 0, 0, -1, 285, 900)"/>
  </g>
  <g>
    <path style="stroke: rgb(0, 0, 0); fill: rgb(255, 255, 255);" d="M 225 188 C 150 188 150 312 225 312"/>
    <path style="stroke: rgb(0, 0, 0); fill: rgb(255, 255, 255);" d="M 225 200 C 165 200 165 300 225 300"/>
    <path style="stroke: rgb(0, 0, 0); fill: rgb(255, 255, 255);" d="M 225 212 C 178 212 178 288 225 288"/>
    <path style="stroke: rgb(0, 0, 0); fill: rgb(255, 255, 255);" d="M 225 224 C 193 224 193 276 225 276"/>
    <path style="stroke: rgb(0, 0, 0);" d="M 225 236 C 208 236 208 264 225 264"/>
  </g>
  <g transform="matrix(-1, 0, 0, -1, 299.980896, 500.81366)">
    <path style="stroke: rgb(0, 0, 0); fill: rgb(255, 255, 255);" d="M 225 188.814 C 150 188.814 150 312.814 225 312.814"/>
    <path style="stroke: rgb(0, 0, 0); fill: rgb(255, 255, 255);" d="M 225 200 C 165 200 165 300 225 300"/>
    <path style="stroke: rgb(0, 0, 0); fill: rgb(255, 255, 255);" d="M 225 212 C 178 212 178 288 225 288"/>
    <path style="stroke: rgb(0, 0, 0); fill: rgb(255, 255, 255);" d="M 225 224 C 193 224 193 276 225 276"/>
    <path style="stroke: rgb(0, 0, 0);" d="M 225 236 C 208 236 208 264 225 264"/>
  </g>
  <g>
    <path style="stroke: rgb(0, 0, 0); fill: rgb(207, 145, 23);" d="M 12 167 C 12 162 24 150 24 150 C 48 200 48 300 24 367 C 24 367 12 350 12 347 C 32 300 32 200 12 167 Z"/>
    <path style="stroke: rgb(0, 0, 0); fill: rgb(207, 145, 23);" d="M 258.196 148.7 L 270.196 133 C 293.671 181.683 294.196 283 270.196 350 C 270.196 350 258.196 332 258.196 329 C 278.196 282 277.671 181.683 258.196 148.7 Z" transform="matrix(-1, 0, 0, -1, 546.195679, 483)"/>
    <path style="stroke: rgb(0, 0, 0); fill: rgb(207, 23, 23);" d="M 58 121.5 C 58 200 70 200 70 250 C 70 300 58 300 58 393 C 57.998 393.012 70 398 70 397 C 70 300 82 300 82 250 C 82 200 70 200 70 115 C 70 115 57.996 120.481 58 121.5 Z"/>
    <path style="stroke: rgb(0, 0, 0); fill: rgb(207, 23, 23);" d="M 218 110.367 C 219.646 188.867 229.63 188.497 230 238.867 C 230.37 289.237 218 288.867 218 380.867 C 218 380.867 230 385.867 230 384.867 C 230 287.867 242 288.867 242 238.867 C 242 188.867 230 188.867 230 103.867 C 230 103.867 217.979 109.367 218 110.367 Z" transform="matrix(-1, 0, 0, -1, 459.999969, 488.866226)"/>
  </g>
  <g>
    <path style="stroke: rgb(0, 0, 0); fill: rgb(255, 255, 255);" d="M 252.783 108.526 C 252.783 104.073 242.185 105.884 242.185 108.308 L 241.275 145.968 C 252.637 148.159 271.891 112.211 252.783 108.526 Z"/>
    <path style="stroke: rgb(0, 0, 0); fill: rgb(207, 145, 23);" d="M 256 113.969 L 256 63.969 L 264 64 L 264.1 108 L 256 113.969 Z"/>
    <path style="stroke: rgb(0, 0, 0); fill: rgb(207, 145, 23);" d="M 277.853 96.197 L 265.353 108.197 C 257.353 116.197 277.853 108.197 277.853 108.197" transform="matrix(-1, 0, 0, -1, 541.353424, 207.949554)"/>
    <path style="stroke: rgb(0, 0, 0); fill: rgb(207, 146, 23);" d="M 256.5 112 L 244 100 C 236 92 256.5 100 256.5 100"/>
    <path style="stroke: rgb(0, 0, 0); fill: rgb(255, 255, 255);" d="M 252.017 125.156 C 249.668 114.113 252.198 98.025 268.913 107.792 C 279.722 114.108 276.79 158.149 241.625 145.436"/>
    <path style="stroke: rgb(0, 0, 0); fill: rgb(28, 23, 23);" d="M 285.5 52 C 259.5 46 259.5 71 285.5 65" transform="matrix(-1, 0, 0, -1, 551.5, 117.000004)"/>
    <path style="stroke: rgb(0, 0, 0); fill: rgb(28, 23, 23);" d="M 269.473 35.972 C 243.473 31.972 243.473 53.972 269.473 47.972" transform="matrix(0, 1, -1, 0, 301.972092, -217.473907)"/>
    <path style="stroke: rgb(0, 0, 0); fill: rgb(28, 23, 23);" d="M 269.75 80.75 C 243.75 86.75 243.75 62.75 269.75 68.75" transform="matrix(0, -1, 1, 0, 185.25, 334.75)"/>
    <path style="stroke: rgb(0, 0, 0); fill: rgb(28, 23, 23);" d="M 254 65 C 228 71 228 46 254 52"/>
    <ellipse style="stroke: rgb(0, 0, 0); fill: rgb(207, 23, 23);" cx="260" cy="59" rx="9" ry="9"/>
  </g>
  <g transform="matrix(-1, 0, 0, -1, 300, 500.027557)">
    <path style="stroke: rgb(0, 0, 0); fill: rgb(255, 255, 255);" d="M 252.783 108.526 C 252.783 104.073 242.185 105.884 242.185 108.308 L 241.275 145.968 C 252.637 148.159 271.891 112.211 252.783 108.526 Z"/>
    <path style="stroke: rgb(0, 0, 0); fill: rgb(207, 145, 23);" d="M 256 113.969 L 256 63.969 L 264 64 L 264.1 108 L 256 113.969 Z"/>
    <path style="stroke: rgb(0, 0, 0); fill: rgb(207, 145, 23);" d="M 277.853 96.197 L 265.353 108.197 C 257.353 116.197 277.853 108.197 277.853 108.197" transform="matrix(-1, 0, 0, -1, 541.353424, 207.949554)"/>
    <path style="stroke: rgb(0, 0, 0); fill: rgb(207, 145, 23);" d="M 256.5 112 L 244 100 C 236 92 256.5 100 256.5 100"/>
    <path style="stroke: rgb(0, 0, 0); fill: rgb(255, 255, 255);" d="M 252.017 125.156 C 249.668 114.113 252.198 98.025 268.913 107.792 C 279.722 114.108 276.79 158.149 241.625 145.436"/>
    <path style="stroke: rgb(0, 0, 0); fill: rgb(28, 23, 23);" d="M 285.5 52 C 259.5 46 259.5 71 285.5 65" transform="matrix(-1, 0, 0, -1, 551.5, 117.000004)"/>
    <path style="stroke: rgb(0, 0, 0); fill: rgb(28, 23, 23);" d="M 269.473 35.972 C 243.473 31.972 243.473 53.972 269.473 47.972" transform="matrix(0, 1, -1, 0, 301.972092, -217.473907)"/>
    <path style="stroke: rgb(0, 0, 0); fill: rgb(28, 23, 23);" d="M 269.75 80.75 C 243.75 86.75 243.75 62.75 269.75 68.75" transform="matrix(0, -1, 1, 0, 185.25, 334.75)"/>
    <path style="stroke: rgb(0, 0, 0); fill: rgb(28, 23, 23);" d="M 254 65 C 228 71 228 46 254 52"/>
    <ellipse style="stroke: rgb(0, 0, 0); fill: rgb(207, 23, 23);" cx="260" cy="59" rx="9" ry="9"/>
  </g>
</svg>