
<svg viewBox="0 0 300 500" xmlns="http://www.w3.org/2000/svg" xmlns:bx="https://boxy-svg.com">
  <g class="torso">
    <path fill="var(--base-color)" stroke="var(--color-black)" stroke-width="2" d="M 130 100 C 100 100 0 150 0 210 L 0 280 C 0 300 10 320 50 340 C 90 360 90 390 120 400 L 170 400 C 200 400 300 350 300 290 L 300 220 C 300 200 290 180 250 160 C 210 140 210 110 180 100 L 130 100 Z" transform="matrix(-1, 0, 0, -1, 300, 500)"/>
    <g class="shoulder bottom" transform="matrix(-1, 0, 0, -1, 300, 500)">
      <path stroke="var(--color-black)" fill="var(--alt-color)" d="M 65 125 C 65 125 50 130 45 139 C 39.392 145.676 106.56 194.019 113.925 185.251 L 132.728 173.217 C 127.117 177.776 60.727 128.472 65 125 Z"/>
      <path stroke="var(--color-black)" fill="var(--alt-color)" d="M 125 100 C 125 100 101 105 100 107 C 100 140 50 200 0 200 L 0 225 C 75 225 125.348 140.022 125 100 L 125.334 100 L 125 100 Z"/>
    </g>
    <g class="shoulder top">
      <path class="baseColor" stroke="var(--color-black)" fill="var(--alt-color)" d="M 65 125 C 65 125 50 130 45 139 C 39.392 145.676 106.56 194.019 113.925 185.251 L 132.728 173.217 C 127.117 177.776 60.727 128.472 65 125 Z"/>
      <path class="baseColor" stroke="var(--color-black)" fill="var(--alt-color)" d="M 125 100 C 125 100 101 105 100 107 C 100 140 50 200 0 200 L 0 225 C 75 225 125.348 140.022 125 100 L 125.334 100 L 125 100 Z"/>
    </g>
  </g>
  <g class="arm bottom" transform="matrix(-1, 0, 0, -1, 300, 500)">
    <path stroke="var(--color-black)" fill="var(--alt-color)" d="M 225 110 L 175 115 L 100 215 C 100 215 200 215 230 175 C 225 180 225 110 225 110 Z"/>
    <path stroke="var(--color-black)" fill="var(--color-yellow)"  d="M 252 400 C 252 400 252 25 252 25 C 255 20 265 20 267 25 C 267 25 267 400 267 400 L 252 400 Z"/>
    <path stroke="var(--color-black)" fill="var(--color-white)"  d="M 235 110 C 235 110 235 105 250 100 C 285 95 285 130 270 140 C 250 150 260.802 157.12 242 160 L 235 110 Z"/>
    <path class="yellowColor" stroke="var(--color-black)" fill="var(--color-yellow)"  d="M 220 110 C 235 105 235 100 240 120 C 240 120 245 160 245 170 C 240 180 235 180 225 170 C 210 150 215 125 220 110 Z"/>
  </g>
  <g class="arm top" >
    <path class="baseFill" stroke="var(--color-black)" fill="var(--alt-color)" d="M 225 110 L 175 115 L 100 215 C 100 215 200 215 230 175 C 225 180 225 110 225 110 Z"/>
    <path class="yellowFill" stroke="var(--color-black)" fill="var(--color-yellow)"  d="M 252 400 C 252 400 252 25 252 25 C 255 20 265 20 267 25 C 267 25 267 400 267 400 L 252 400 Z"/>
    <path stroke="var(--color-black)" fill="var(--color-white)"  d="M 235 110 C 235 110 235 105 250 100 C 285 95 285 130 270 140 C 250 150 260.802 157.12 242 160 L 235 110 Z"/>
    <path class="yellowFill" stroke="var(--color-black)" fill="var(--color-yellow)"  d="M 220 110 C 235 105 235 100 240 120 C 240 120 245 160 245 170 C 240 180 235 180 225 170 C 210 150 215 125 220 110 Z"/>
  </g>
  <path id="robe" class="yellowFill" stroke="var(--color-black)" fill="var(--color-yellow)"  d="M 150 100 C 150 150 150 170 80 200 C 50 250 50 300 100 300 L 200 285 C 150 290 125 325 125 400 C 125 400 150 400 150.867 400 C 150 350 150 330 220 300 C 250 250 250 200 200 200 L 100 215 C 150 210 175 175 175 100 L 150 100 Z" bx:origin="0.5 0.5"/>
  <g class="head top">
    <path stroke="var(--color-black)" fill="var(--alt-color)"  d="M 173.144 99.411 C 177.081 117.418 138.737 107.927 124.463 100 C 114.954 92.95 128.438 82.593 133.629 81.487 C 142.288 80.496 166.178 92.659 173.144 99.411 Z"/>
    <path stroke="var(--color-black)" fill="var(--color-white)"  d="M 182.814 86.23 C 183.279 85.674 181.753 87.506 181.888 90.888 C 182.023 94.266 181.058 95.594 178.121 96.898 C 174.493 98.509 174.011 101.509 173.497 102.037 L 173.395 89.978 L 182.814 86.23 Z"/>
    <path stroke="var(--color-black)" fill="var(--alt-color)"  d="M 181.086 107.072 C 175.753 110.212 172.961 104.961 173.756 100.079 C 176.416 95.632 177.857 96.861 181.526 94.772 C 185.764 100 187.335 103.393 181.086 107.072 Z"/>
    <path stroke="var(--color-black)" fill="var(--color-white)"  d="M 173.495 88.308 L 173.597 100 C 174.195 100.866 169.858 95.819 155.128 92.831 C 144.694 90.714 135.587 83.667 134.571 82.396 L 137.533 71.115 L 173.495 88.308 Z"/>
    <path class="yellowFill" stroke="var(--color-black)" fill="var(--color-yellow)"  d="M 182.254 86.892 L 182.254 15.375 C 187.023 10.249 195.541 28.065 193.446 41.613 C 190.555 60.304 192.515 60.933 194.905 68.385 C 207.865 79.324 191.289 87.688 182.254 86.892 Z"/>
    <path stroke="var(--color-black)" fill="var(--color-white)"  d="M 137.977 18.339 L 139.816 73.217 C 143.682 82.069 173.605 98.07 182.43 88.229 C 185.261 85.072 184.93 79.699 185.476 74.971 C 185.422 60.861 185.371 16.83 185.405 16.83 L 137.977 18.339 Z"/>
    <path class="yellowFill" stroke="var(--color-black)" fill="var(--color-yellow)"  d="M 120.217 28.021 L 120.461 64.999 C 102.312 72.54 113.911 81.707 120.948 84.705 C 129.156 88.201 141.199 93.483 140.167 75.703 C 139.509 64.373 141.254 45.764 139.68 22.182 C 139.324 16.853 126.205 22.211 120.217 28.021 Z"/>
    <path stroke="var(--color-black)" fill="var(--base-color)"  d="M 110 0 L 119.976 31.183 C 146.956 9.866 202.852 32.458 193.202 0 L 110 0 Z"/>
    <ellipse stroke="var(--color-black)" stroke-width="0" cx="177" cy="50" rx="5" ry="5" class="eye"/>
    <ellipse stroke="var(--color-black)" stroke-width="0" cx="149" cy="50" rx="5" ry="5" class="eye"/>
    <path stroke="var(--color-black)" stroke-width="2" fill="var(--color-white)"  d="M 157.002 50.299 C 156.829 61.665 170.283 62.563 169.162 50"/>
  </g>
  <g class="head bottom">
    <path stroke="var(--color-black)" fill="var(--alt-color)"  d="M 178.24 408.28 C 182.177 426.287 143.833 416.796 129.559 408.869 C 120.05 401.819 133.534 391.462 138.725 390.356 C 147.384 389.365 171.274 401.528 178.24 408.28 Z" transform="matrix(-1, 0, 0, -1, 304.771591, 808.869019)"/>
    <path stroke="var(--color-black)" fill="var(--color-white)"  d="M 126.193 398.061 C 126.658 397.505 125.132 399.337 125.267 402.719 C 125.402 406.097 124.437 407.425 121.5 408.729 C 117.872 410.34 117.39 413.34 116.876 413.868 L 116.774 401.809 L 126.193 398.061 Z" transform="matrix(-1, 0, 0, -1, 243.055473, 811.830566)"/>
    <path stroke="var(--color-black)" fill="var(--alt-color)"  d="M 121.89 404.279 C 116.557 407.419 113.765 402.168 114.56 397.286 C 117.22 392.839 118.661 394.068 122.33 391.979 C 126.568 397.207 128.139 400.6 121.89 404.279 Z" transform="matrix(-1, 0, 0, -1, 240.480354, 797.207214)"/>
    <path stroke="var(--color-black)" fill="var(--color-white)"  d="M 164.95 417.094 L 165.052 428.786 C 165.65 429.652 161.313 424.605 146.583 421.617 C 136.149 419.5 127.042 412.453 126.026 411.182 L 128.988 399.901 L 164.95 417.094 Z" transform="matrix(-1, 0, 0, -1, 291.131195, 828.785522)"/>
    <path class="yellowFill" stroke="var(--color-black)" fill="var(--color-yellow)"  d="M 100 485.263 L 100 413.746 C 104.769 408.62 113.287 426.436 111.192 439.984 C 108.301 458.675 110.261 459.304 112.651 466.756 C 125.611 477.695 109.035 486.059 100 485.263 Z" transform="matrix(-1, 0, 0, -1, 217.422005, 898.160126)"/>
    <path stroke="var(--color-black)" fill="var(--color-white)"  d="M 114.2 410.186 L 116.039 465.064 C 119.905 473.916 149.828 489.917 158.653 480.076 C 161.484 476.919 161.153 471.546 161.699 466.818 C 161.645 452.708 161.594 408.677 161.628 408.677 L 114.2 410.186 Z" transform="matrix(-1, 0, 0, -1, 275.899002, 891.84726)"/>
    <path class="yellowFill" stroke="var(--color-black)" fill="var(--color-yellow)"  d="M 168.769 419.783 L 169.013 456.761 C 150.864 464.302 162.463 473.469 169.5 476.467 C 177.708 479.963 189.751 485.245 188.719 467.465 C 188.061 456.135 189.806 437.526 188.232 413.944 C 187.876 408.615 174.757 413.973 168.769 419.783 Z" transform="matrix(-1, 0, 0, -1, 348.227798, 891.762177)"/>
    <path stroke="var(--color-black)" fill="var(--base-color)"  d="M 105.367 468.817 L 115.343 500 C 142.323 478.683 198.219 501.275 188.569 468.817 L 105.367 468.817 Z" transform="matrix(-1, 0, 0, -1, 295.04258, 968.816986)"/>
    <ellipse stroke="var(--color-black)" stroke-width="2" cx="-124" cy="-450" rx="5" ry="5" class="eye" transform="matrix(-1, 0, 0, -1, 0, 0)"/>
    <ellipse stroke="var(--color-black)" stroke-width="2" cx="-150" cy="-450" rx="5" ry="5" class="eye" transform="matrix(-1, 0, 0, -1, 0, 0)"/>
    <path stroke="var(--color-black)" stroke-width="2" fill="var(--color-white)"  d="M 130.802 441.199 C 130.629 452.565 144.083 453.463 142.962 440.9" transform="matrix(-1, 0, 0, -1, 273.82872, 890.924286)"/>
  </g>
</svg>