<?xml version="1.0" encoding="utf-8"?>
<svg viewBox="0 0 300 500" xmlns="http://www.w3.org/2000/svg">
  <path stroke="var(--color-black)" fill="var(--base-color)" d="M 100 405 C 0 405 -0.03 360.045 0 300 L 0 200 C 0 185 0 100 100 100 C 115 100 119 83 125 83 L 200 95 C 300 95 300 131.523 300 200 L 300 300 C 300 320 299.987 398.412 200 400.001 C 185.611 400.23 181 417 175 417 C 175 417 100 405 100 405 Z"/>
  <g>
    <g transform="matrix(0.956377, 0, 0, 1.077148, 7.884892, -1.924945)">
      <path stroke="var(--color-black)" fill="var(--color-white)" d="M 190.191 81.908 C 190.191 81.908 200.083 32.191 191.897 27.511 C 170.211 14.745 186.609 55.065 187.962 32.276 C 187.899 29.223 187.829 39.01 186.566 38.402 C 187.729 37.661 186.06 77.831 185.76 81.802" transform="matrix(-1, 0, 0, -1, 375.890488, 106.859238)"/>
      <path stroke="var(--color-black)" fill="var(--color-white)" d="M 187.981 75.28 C 187.562 77.727 191.696 79.11 192.401 74.995"/>
    </g>
    <path stroke="var(--color-black)" fill="var(--alt-color)" d="M 193.728 100 L 135.97 100 C 170.984 151.571 150 180 165 180 C 176 180 166.304 139.146 193.728 100 Z"/>
    <path stroke="var(--color-black)" fill="var(--color-yellow)" d="M 194.531 79.484 C 200 107.999 185.144 108.324 172.327 108.048 C 140.294 107.358 116.36 96.23 129.047 77.004 C 133.847 69.73 187.565 72.732 194.531 79.484 Z"/>
    <path stroke="var(--color-black)" fill="var(--color-white)" d="M 183.137 86.231 C 183.602 85.675 181.371 87.742 181.506 91.124 C 181.641 94.502 179.065 97.548 174.021 100.001 L 173.718 89.979 L 183.137 86.231 Z"/>
    <path stroke="var(--color-black)" fill="var(--color-white)" d="M 173.752 88.31 L 173.898 100.002 C 174.755 100.868 159.249 98.122 142.036 85.553 C 129.967 76.74 123.179 74.025 120.335 73.944 L 125.518 58.436 L 173.752 88.31 Z"/>
    <path stroke="var(--color-black)" fill="var(--color-white)" d="M 138 25 L 138 68 C 140.866 76.358 174.199 97.558 183.024 88.251 C 185.855 85.264 186 80.2 186 75.7 C 186 62.4 186 25 186 25 L 138 25 Z"/>
    <ellipse stroke="var(--color-black)" stroke-width="0" cx="179.324" cy="44.001" rx="5" ry="5" class="eye"/>
    <ellipse stroke="var(--color-black)" stroke-width="0" cx="151.324" cy="44.001" rx="5" ry="5" class="eye"/>
    <g>
      <g transform="matrix(0.999848, -0.017453, 0.019385, 1.110607, -12.656503, -8.719391)" style="">
        <path stroke="var(--color-black)" fill="var(--color-white)" d="M 137.832 25.022 C 137.832 25.022 147.724 74.739 139.538 79.419 C 117.852 92.185 134.25 51.865 135.603 74.654 C 135.54 77.707 135.47 67.92 134.207 68.528 C 138.629 68.144 131.894 25.287 131.262 25.342"/>
        <path stroke="var(--color-black)" fill="var(--color-white)" d="M 135.552 75.285 C 135.648 76.965 131.912 79.743 131.653 75.215"/>
      </g>
      <g transform="matrix(1, 0, 0, 1.111775, -6.578219, -7.263518)" style="">
        <path stroke="var(--color-black)" fill="var(--color-white)" d="M 137.832 25.022 C 137.832 25.022 147.724 74.739 139.538 79.419 C 117.852 92.185 134.25 51.865 135.603 74.654 C 135.54 77.707 135.47 67.92 134.207 68.528 C 138.629 68.144 131.894 25.287 131.262 25.342"/>
        <path stroke="var(--color-black)" fill="var(--color-white)" d="M 135.552 75.285 C 135.648 76.965 131.912 79.743 131.653 75.215"/>
      </g>
      <g style="" transform="matrix(0.997996, 0.063279, -0.071136, 1.121941, 2.652809, -11.770306)">
        <path stroke="var(--color-black)" fill="var(--color-white)" d="M 137.832 25.022 C 137.832 25.022 147.724 74.739 139.538 79.419 C 117.852 92.185 134.25 51.865 135.603 74.654 C 135.54 77.707 135.47 67.92 134.207 68.528 C 138.629 68.144 131.894 25.287 131.262 25.342"/>
        <path stroke="var(--color-black)" fill="var(--color-white)" d="M 135.552 75.285 C 135.648 76.965 131.912 79.743 131.653 75.215"/>
      </g>
      <path stroke="var(--color-black)" fill="var(--color-yellow)" d="M 106 0 L 119 26 L 192 20 L 199.788 -0.243"/>
      <path stroke="var(--color-black)" fill="var(--base-color)" d="M 121 30 L 119 26 C 124 20 132 20 138 20 L 192 20 L 190 25 L 138 25 C 132 25 126 25 121 30 Z"/>
      <path stroke="var(--color-black)" stroke-width="2" fill="var(--color-white)" d="M 159.326 45.3 C 159.153 56.666 172.607 57.564 171.486 45.001"/>
      <g transform="matrix(0.956305, 0.292372, -0.312469, 1.02204, 31.871517, -41.745575)" style="">
        <path stroke="var(--color-black)" fill="var(--color-white)" d="M 189.106 38.219 C 191.519 36.264 200.195 30.664 192.231 27.107 C 163.737 14.379 187.593 56.883 190.241 33.022" transform="matrix(-1, 0, 0, -1, 375.890488, 106.859238)"/>
        <path stroke="var(--color-black)" fill-opacity="0" fill="var(--color-white)" d="M 185.663 73.544 C 185.389 76.172 196.654 82.821 191.753 71.888"/>
      </g>
      <g transform="matrix(1, 0, 0, 1.068739, -0.896251, 2.229016)" style="">
        <path stroke="var(--color-black)" fill="var(--color-white)" d="M 189.106 38.219 C 191.519 36.264 200.195 30.664 192.231 27.107 C 163.737 14.379 187.593 56.883 190.241 33.022" transform="matrix(-1, 0, 0, -1, 375.890488, 106.859238)"/>
        <path stroke="var(--color-black)" fill-opacity="0" fill="var(--color-white)" d="M 185.663 73.544 C 185.389 76.172 196.654 82.821 191.753 71.888"/>
      </g>
      <g transform="matrix(-1.026085, 0.35331, 0.336089, 0.976073, 338.434052, -43.231892)" style="">
        <path stroke="var(--color-black)" fill="var(--color-white)" d="M 189.106 38.219 C 191.519 36.264 200.195 30.664 192.231 27.107 C 163.737 14.379 187.593 56.883 190.241 33.022" transform="matrix(-1, 0, 0, -1, 375.890488, 106.859238)"/>
        <path stroke="var(--color-black)" fill-opacity="0" fill="var(--color-white)" d="M 185.663 73.544 C 185.389 76.172 196.654 82.821 191.753 71.888"/>
      </g>
      <g transform="matrix(-0.537553, 0.761538, 0.909801, 0.642209, 213.286072, -95.441559)" style="">
        <path stroke="var(--color-black)" fill="var(--color-white)" d="M 189.106 38.219 C 191.519 36.264 200.195 30.664 192.231 27.107 C 163.737 14.379 187.593 56.883 190.241 33.022" transform="matrix(-1, 0, 0, -1, 375.890488, 106.859238)"/>
        <path stroke="var(--color-black)" fill-opacity="0" fill="var(--color-white)" d="M 185.663 73.544 C 185.389 76.172 196.654 82.821 191.753 71.888"/>
      </g>
      <g transform="matrix(-0.980662, 0.337669, 0.342168, 0.993729, 318.743561, -45.823963)" style="">
        <path stroke="var(--color-black)" fill="var(--color-white)" d="M 189.106 38.219 C 191.519 36.264 200.195 30.664 192.231 27.107 C 163.737 14.379 187.593 56.883 190.241 33.022" transform="matrix(-1, 0, 0, -1, 375.890488, 106.859238)"/>
        <path stroke="var(--color-black)" fill-opacity="0" fill="var(--color-white)" d="M 185.663 73.544 C 185.389 76.172 196.654 82.821 191.753 71.888"/>
      </g>
      <g transform="matrix(-1.004718, 0.345952, 0.333332, 0.968068, 313.561798, -50.810516)" style="">
        <path stroke="var(--color-black)" fill="var(--color-white)" d="M 189.106 38.219 C 191.519 36.264 200.195 30.664 192.231 27.107 C 163.737 14.379 187.593 56.883 190.241 33.022" transform="matrix(-1, 0, 0, -1, 375.890488, 106.859238)"/>
        <path stroke="var(--color-black)" fill-opacity="0" fill="var(--color-white)" d="M 185.663 73.544 C 185.389 76.172 196.654 82.821 191.753 71.888"/>
      </g>
      <g transform="matrix(-1.004718, 0.345952, 0.333332, 0.968068, 302.487091, -54.228493)" style="">
        <path stroke="var(--color-black)" fill="var(--color-white)" d="M 189.106 38.219 C 191.519 36.264 200.195 30.664 192.231 27.107 C 163.737 14.379 187.593 56.883 190.241 33.022" transform="matrix(-1, 0, 0, -1, 375.890488, 106.859238)"/>
        <path stroke="var(--color-black)" fill-opacity="0" fill="var(--color-white)" d="M 185.663 73.544 C 185.389 76.172 196.654 82.821 191.753 71.888"/>
      </g>
      <g transform="matrix(1.018847, 0.311492, -0.331349, 1.083796, 13.242969, -52.440388)" style="">
        <path stroke="var(--color-black)" fill="var(--color-white)" d="M 189.106 38.219 C 191.519 36.264 200.195 30.664 192.231 27.107 C 163.737 14.379 187.593 56.883 190.241 33.022" transform="matrix(-1, 0, 0, -1, 375.890488, 106.859238)"/>
        <path stroke="var(--color-black)" fill-opacity="0" fill="var(--color-white)" d="M 185.663 73.544 C 185.389 76.172 196.654 82.821 191.753 71.888"/>
      </g>
      <g transform="matrix(-1.058076, 0.364325, 0.360661, 1.047435, 338.548431, -59.241699)" style="">
        <path stroke="var(--color-black)" fill="var(--color-white)" d="M 189.106 38.219 C 191.519 36.264 200.195 30.664 192.231 27.107 C 163.737 14.379 187.593 56.883 190.241 33.022" transform="matrix(-1, 0, 0, -1, 375.890488, 106.859238)"/>
        <path stroke="var(--color-black)" fill-opacity="0" fill="var(--color-white)" d="M 185.663 73.544 C 185.389 76.172 196.654 82.821 191.753 71.888"/>
      </g>
      <g transform="matrix(-0.980662, 0.337669, 0.342168, 0.993729, 314.171387, -54.91785)" style="">
        <path stroke="var(--color-black)" fill="var(--color-white)" d="M 189.106 38.219 C 191.519 36.264 200.195 30.664 192.231 27.107 C 163.737 14.379 187.593 56.883 190.241 33.022" transform="matrix(-1, 0, 0, -1, 375.890488, 106.859238)"/>
        <path stroke="var(--color-black)" fill-opacity="0" fill="var(--color-white)" d="M 185.663 73.544 C 185.389 76.172 196.654 82.821 191.753 71.888"/>
      </g>
      <g transform="matrix(-1.004718, 0.345952, 0.333332, 0.968068, 308.989624, -59.904404)" style="">
        <path stroke="var(--color-black)" fill="var(--color-white)" d="M 189.106 38.219 C 191.519 36.264 200.195 30.664 192.231 27.107 C 163.737 14.379 187.593 56.883 190.241 33.022" transform="matrix(-1, 0, 0, -1, 375.890488, 106.859238)"/>
        <path stroke="var(--color-black)" fill-opacity="0" fill="var(--color-white)" d="M 185.663 73.544 C 185.389 76.172 196.654 82.821 191.753 71.888"/>
      </g>
    </g>
  </g>
  <g transform="matrix(-1, 0, 0, -1, 300, 499.756989)">
    <g style="" transform="matrix(0.956377, 0, 0, 1.077148, 7.884892, -1.924945)">
      <path stroke="var(--color-black)" fill="var(--color-white)" d="M 190.191 81.908 C 190.191 81.908 200.083 32.191 191.897 27.511 C 170.211 14.745 186.609 55.065 187.962 32.276 C 187.899 29.223 187.829 39.01 186.566 38.402 C 187.729 37.661 186.06 77.831 185.76 81.802" transform="matrix(-1, 0, 0, -1, 375.890488, 106.859238)"/>
      <path stroke="var(--color-black)" fill="var(--color-white)" d="M 187.981 75.28 C 187.562 77.727 191.696 79.11 192.401 74.995"/>
    </g>
    <path stroke="var(--color-black)" fill="var(--alt-color)" d="M 193.728 100 L 135.97 100 C 170.984 151.571 150 180 165 180 C 176 180 166.304 139.146 193.728 100 Z"/>
    <path stroke="var(--color-black)" fill="var(--color-yellow)" d="M 194.531 79.484 C 200 107.999 185.144 108.324 172.327 108.048 C 140.294 107.358 116.36 96.23 129.047 77.004 C 133.847 69.73 187.565 72.732 194.531 79.484 Z"/>
    <path stroke="var(--color-black)" fill="var(--color-white)" d="M 183.137 86.231 C 183.602 85.675 181.371 87.742 181.506 91.124 C 181.641 94.502 179.065 97.548 174.021 100.001 L 173.718 89.979 L 183.137 86.231 Z"/>
    <path stroke="var(--color-black)" fill="var(--color-white)" d="M 173.752 88.31 L 173.898 100.002 C 174.755 100.868 159.249 98.122 142.036 85.553 C 129.967 76.74 123.179 74.025 120.335 73.944 L 125.518 58.436 L 173.752 88.31 Z"/>
    <path stroke="var(--color-black)" fill="var(--color-white)" d="M 138 25 L 138 68 C 140.866 76.358 174.199 97.558 183.024 88.251 C 185.855 85.264 186 80.2 186 75.7 C 186 62.4 186 25 186 25 L 138 25 Z"/>
    <ellipse stroke="var(--color-black)" stroke-width="0" cx="179.324" cy="44.001" rx="5" ry="5" class="eye"/>
    <ellipse stroke="var(--color-black)" stroke-width="0" cx="151.324" cy="44.001" rx="5" ry="5" class="eye"/>
    <g>
      <g transform="matrix(0.999848, -0.017453, 0.019385, 1.110607, -12.656503, -8.719391)" style="">
        <path stroke="var(--color-black)" fill="var(--color-white)" d="M 137.832 25.022 C 137.832 25.022 147.724 74.739 139.538 79.419 C 117.852 92.185 134.25 51.865 135.603 74.654 C 135.54 77.707 135.47 67.92 134.207 68.528 C 138.629 68.144 131.894 25.287 131.262 25.342"/>
        <path stroke="var(--color-black)" fill="var(--color-white)" d="M 135.552 75.285 C 135.648 76.965 131.912 79.743 131.653 75.215"/>
      </g>
      <g transform="matrix(1, 0, 0, 1.111775, -6.578219, -7.263518)" style="">
        <path stroke="var(--color-black)" fill="var(--color-white)" d="M 137.832 25.022 C 137.832 25.022 147.724 74.739 139.538 79.419 C 117.852 92.185 134.25 51.865 135.603 74.654 C 135.54 77.707 135.47 67.92 134.207 68.528 C 138.629 68.144 131.894 25.287 131.262 25.342"/>
        <path stroke="var(--color-black)" fill="var(--color-white)" d="M 135.552 75.285 C 135.648 76.965 131.912 79.743 131.653 75.215"/>
      </g>
      <g style="" transform="matrix(0.997996, 0.063279, -0.071136, 1.121941, 2.652809, -11.770306)">
        <path stroke="var(--color-black)" fill="var(--color-white)" d="M 137.832 25.022 C 137.832 25.022 147.724 74.739 139.538 79.419 C 117.852 92.185 134.25 51.865 135.603 74.654 C 135.54 77.707 135.47 67.92 134.207 68.528 C 138.629 68.144 131.894 25.287 131.262 25.342"/>
        <path stroke="var(--color-black)" fill="var(--color-white)" d="M 135.552 75.285 C 135.648 76.965 131.912 79.743 131.653 75.215"/>
      </g>
      <path stroke="var(--color-black)" fill="var(--color-yellow)" d="M 106 0 L 119 26 L 192 20 L 199.788 -0.243"/>
      <path stroke="var(--color-black)" fill="var(--base-color)" d="M 121 30 L 119 26 C 124 20 132 20 138 20 L 192 20 L 190 25 L 138 25 C 132 25 126 25 121 30 Z"/>
      <path stroke="var(--color-black)" stroke-width="2" fill="var(--color-white)" d="M 159.326 45.3 C 159.153 56.666 172.607 57.564 171.486 45.001"/>
      <g transform="matrix(0.956305, 0.292372, -0.312469, 1.02204, 31.871517, -41.745575)" style="">
        <path stroke="var(--color-black)" fill="var(--color-white)" d="M 189.106 38.219 C 191.519 36.264 200.195 30.664 192.231 27.107 C 163.737 14.379 187.593 56.883 190.241 33.022" transform="matrix(-1, 0, 0, -1, 375.890488, 106.859238)"/>
        <path stroke="var(--color-black)" fill-opacity="0" fill="var(--color-white)" d="M 185.663 73.544 C 185.389 76.172 196.654 82.821 191.753 71.888"/>
      </g>
      <g transform="matrix(1, 0, 0, 1.068739, -0.896251, 2.229016)" style="">
        <path stroke="var(--color-black)" fill="var(--color-white)" d="M 189.106 38.219 C 191.519 36.264 200.195 30.664 192.231 27.107 C 163.737 14.379 187.593 56.883 190.241 33.022" transform="matrix(-1, 0, 0, -1, 375.890488, 106.859238)"/>
        <path stroke="var(--color-black)" fill-opacity="0" fill="var(--color-white)" d="M 185.663 73.544 C 185.389 76.172 196.654 82.821 191.753 71.888"/>
      </g>
      <g transform="matrix(-1.026085, 0.35331, 0.336089, 0.976073, 338.434052, -43.231892)" style="">
        <path stroke="var(--color-black)" fill="var(--color-white)" d="M 189.106 38.219 C 191.519 36.264 200.195 30.664 192.231 27.107 C 163.737 14.379 187.593 56.883 190.241 33.022" transform="matrix(-1, 0, 0, -1, 375.890488, 106.859238)"/>
        <path stroke="var(--color-black)" fill-opacity="0" fill="var(--color-white)" d="M 185.663 73.544 C 185.389 76.172 196.654 82.821 191.753 71.888"/>
      </g>
      <g transform="matrix(-0.537553, 0.761538, 0.909801, 0.642209, 213.286072, -95.441559)" style="">
        <path stroke="var(--color-black)" fill="var(--color-white)" d="M 189.106 38.219 C 191.519 36.264 200.195 30.664 192.231 27.107 C 163.737 14.379 187.593 56.883 190.241 33.022" transform="matrix(-1, 0, 0, -1, 375.890488, 106.859238)"/>
        <path stroke="var(--color-black)" fill-opacity="0" fill="var(--color-white)" d="M 185.663 73.544 C 185.389 76.172 196.654 82.821 191.753 71.888"/>
      </g>
      <g transform="matrix(-0.980662, 0.337669, 0.342168, 0.993729, 318.743561, -45.823963)" style="">
        <path stroke="var(--color-black)" fill="var(--color-white)" d="M 189.106 38.219 C 191.519 36.264 200.195 30.664 192.231 27.107 C 163.737 14.379 187.593 56.883 190.241 33.022" transform="matrix(-1, 0, 0, -1, 375.890488, 106.859238)"/>
        <path stroke="var(--color-black)" fill-opacity="0" fill="var(--color-white)" d="M 185.663 73.544 C 185.389 76.172 196.654 82.821 191.753 71.888"/>
      </g>
      <g transform="matrix(-1.004718, 0.345952, 0.333332, 0.968068, 313.561798, -50.810516)" style="">
        <path stroke="var(--color-black)" fill="var(--color-white)" d="M 189.106 38.219 C 191.519 36.264 200.195 30.664 192.231 27.107 C 163.737 14.379 187.593 56.883 190.241 33.022" transform="matrix(-1, 0, 0, -1, 375.890488, 106.859238)"/>
        <path stroke="var(--color-black)" fill-opacity="0" fill="var(--color-white)" d="M 185.663 73.544 C 185.389 76.172 196.654 82.821 191.753 71.888"/>
      </g>
      <g transform="matrix(-1.004718, 0.345952, 0.333332, 0.968068, 302.487091, -54.228493)" style="">
        <path stroke="var(--color-black)" fill="var(--color-white)" d="M 189.106 38.219 C 191.519 36.264 200.195 30.664 192.231 27.107 C 163.737 14.379 187.593 56.883 190.241 33.022" transform="matrix(-1, 0, 0, -1, 375.890488, 106.859238)"/>
        <path stroke="var(--color-black)" fill-opacity="0" fill="var(--color-white)" d="M 185.663 73.544 C 185.389 76.172 196.654 82.821 191.753 71.888"/>
      </g>
      <g transform="matrix(1.018847, 0.311492, -0.331349, 1.083796, 13.242969, -52.440388)" style="">
        <path stroke="var(--color-black)" fill="var(--color-white)" d="M 189.106 38.219 C 191.519 36.264 200.195 30.664 192.231 27.107 C 163.737 14.379 187.593 56.883 190.241 33.022" transform="matrix(-1, 0, 0, -1, 375.890488, 106.859238)"/>
        <path stroke="var(--color-black)" fill-opacity="0" fill="var(--color-white)" d="M 185.663 73.544 C 185.389 76.172 196.654 82.821 191.753 71.888"/>
      </g>
      <g transform="matrix(-1.058076, 0.364325, 0.360661, 1.047435, 338.548431, -59.241699)" style="">
        <path stroke="var(--color-black)" fill="var(--color-white)" d="M 189.106 38.219 C 191.519 36.264 200.195 30.664 192.231 27.107 C 163.737 14.379 187.593 56.883 190.241 33.022" transform="matrix(-1, 0, 0, -1, 375.890488, 106.859238)"/>
        <path stroke="var(--color-black)" fill-opacity="0" fill="var(--color-white)" d="M 185.663 73.544 C 185.389 76.172 196.654 82.821 191.753 71.888"/>
      </g>
      <g transform="matrix(-0.980662, 0.337669, 0.342168, 0.993729, 314.171387, -54.91785)" style="">
        <path stroke="var(--color-black)" fill="var(--color-white)" d="M 189.106 38.219 C 191.519 36.264 200.195 30.664 192.231 27.107 C 163.737 14.379 187.593 56.883 190.241 33.022" transform="matrix(-1, 0, 0, -1, 375.890488, 106.859238)"/>
        <path stroke="var(--color-black)" fill-opacity="0" fill="var(--color-white)" d="M 185.663 73.544 C 185.389 76.172 196.654 82.821 191.753 71.888"/>
      </g>
      <g transform="matrix(-1.004718, 0.345952, 0.333332, 0.968068, 308.989624, -59.904404)" style="">
        <path stroke="var(--color-black)" fill="var(--color-white)" d="M 189.106 38.219 C 191.519 36.264 200.195 30.664 192.231 27.107 C 163.737 14.379 187.593 56.883 190.241 33.022" transform="matrix(-1, 0, 0, -1, 375.890488, 106.859238)"/>
        <path stroke="var(--color-black)" fill-opacity="0" fill="var(--color-white)" d="M 185.663 73.544 C 185.389 76.172 196.654 82.821 191.753 71.888"/>
      </g>
    </g>
  </g>
  <path stroke="var(--color-black)" fill="var(--color-yellow)" d="M 75 220 L 75 280 L 225 280 L 225 220 L 75 220 Z"/>
  <path stroke="var(--color-black)" fill="var(--alt-color)" d="M 225 265 L 75 265 L 75 235 L 225 235 L 225 265 Z"/>
  <g>
    <path stroke="var(--color-black)" fill="var(--base-color)" d="M 0 200 C 0 192 0 136 45 112 C 100 150 100 350 44.69 397.985 C 33.184 392.519 25.622 395.906 12.445 375.765 C 3.375 361.903 0.092 344.724 0 302"/>
    <path stroke="var(--color-black)" fill="var(--color-yellow)" d="M 54.187 401.045 C 96.738 360.355 118.112 191.19 56.346 106.892 C 51.941 108.23 47.993 110.089 45 112 C 100 150 99.859 349.399 44.859 397.874 C 50.744 400.938 53.408 400.927 54.187 401.045 Z"/>
    <path stroke="var(--color-black)" fill="var(--color-yellow)" d="M 0 200 C 75 200 75 300 0 300"/>
    <path stroke="var(--color-black)" fill="var(--alt-color)" d="M 0 216 C 54 216 55 284 0 284"/>
    <path stroke="var(--color-black)" fill="var(--base-color)" d="M 213.419 189.028 C 213.325 180.713 212.08 120.75 258.419 100.668 C 313.419 138.823 314.197 338.864 258.887 387.045 C 260.408 388.047 236.841 382.274 225.864 365.512 C 216.763 351.614 213.511 334.344 213.419 291.445" transform="matrix(-1, 0, 0, -1, 513.41954, 487.82251)"/>
    <path stroke="var(--color-black)" fill="var(--color-yellow)" d="M 214.722 392.821 C 257.273 352.131 278.647 182.966 216.881 98.668 C 212.476 100.006 208.325 101.663 205.332 103.574 C 260.332 141.574 261.598 342.164 206.598 390.639 C 208.881 391.911 212.605 392.939 214.722 392.821 Z" transform="matrix(-1, 0, 0, -1, 460.739487, 491.49826)"/>
    <path stroke="var(--color-black)" fill="var(--color-yellow)" d="M 243.75 200 C 318.75 200 318.75 300 243.75 300" transform="matrix(-1, 0, 0, -1, 543.75, 500)"/>
    <path stroke="var(--color-black)" fill="var(--alt-color)" d="M 259.123 216 C 313.123 216 314.123 284 259.123 284" transform="matrix(-1, 0, 0, -1, 559.121826, 500)"/>
    <g>
      <path stroke="var(--color-black)" fill="var(--color-yellow)" d="M 300 227.182 L 266.168 227.182 L 262.668 232.863 L 297.667 232.863 L 300 227.182 Z"/>
      <path stroke="var(--color-black)" fill="var(--color-yellow)" d="M 275.852 267.251 C 275.972 274.776 288.832 275.581 288.914 267.446"/>
      <path stroke="var(--color-black)" fill="var(--color-white)" d="M 272 227 L 273 23 L 290 50 L 291 227.035 L 272 227 Z"/>
      <path stroke="var(--color-black)" fill="var(--color-white)" d="M 295.186 263.897 C 272.637 283.423 249.01 239.547 266.168 232.863 L 295.333 232.863 C 303.174 232.863 296.128 263.897 295.186 263.897 Z"/>
    </g>
    <g transform="matrix(-1, 0, 0, -1, 300, 500.026978)">
      <path stroke="var(--color-black)" fill="var(--color-yellow)" d="M 300 227.182 L 266.168 227.182 L 262.668 232.863 L 297.667 232.863 L 300 227.182 Z"/>
      <path stroke="var(--color-black)" fill="var(--color-yellow)" d="M 275.852 267.251 C 275.972 274.776 288.832 275.581 288.914 267.446"/>
      <path stroke="var(--color-black)" fill="var(--color-white)" d="M 272 227 L 273 23 L 290 50 L 291 227.035 L 272 227 Z"/>
      <path stroke="var(--color-black)" fill="var(--color-white)" d="M 295.186 263.897 C 272.637 283.423 249.01 239.547 266.168 232.863 L 295.333 232.863 C 303.174 232.863 296.128 263.897 295.186 263.897 Z"/>
    </g>
  </g>
  <path stroke="var(--color-black)" fill="var(--color-yellow)" d="M 74.738 101.838 C 74.753 101.828 100 150 100 200 C 100 210 135.156 212.497 135 197.659 C 134.474 147.662 100 100 100 100 C 87.452 100 86.283 100 74.738 101.838 Z"/>
  <path stroke="var(--color-black)" fill="var(--alt-color)" d="M 80.216 101.028 C 81.52 100.357 96.368 99.329 96.368 100 C 98.852 103.268 127.075 154.805 129.644 193.23 C 130.387 204.43 107.65 204.173 106.145 194.57 C 105.527 168.83 89.057 114.354 80.216 101.028 Z"/>
  <path stroke="var(--color-black)" fill="var(--color-yellow)" d="M 165.064 293.476 C 165.079 293.466 190.326 341.638 190.326 391.638 C 190.326 401.638 225.482 404.135 225.326 389.297 C 224.8 339.3 190.326 291.638 190.326 291.638 C 177.778 291.638 176.609 291.638 165.064 293.476 Z" transform="matrix(-1, 0, 0, -1, 390.390518, 691.419861)"/>
  <path stroke="var(--color-black)" fill="var(--alt-color)" d="M 170.403 299.322 C 171.707 298.651 186.555 297.623 186.555 298.294 C 189.039 301.562 217.262 353.099 219.831 391.524 C 220.574 402.724 197.837 402.467 196.332 392.864 C 195.714 367.124 179.244 312.648 170.403 299.322 Z" transform="matrix(-1, 0, 0, -1, 390.251816, 698.07605)"/>
  <path stroke="var(--color-black)" fill="var(--color-yellow)" d="M 172.015 209.808 C 172.028 209.818 194.776 157.277 194.776 103.581 C 194.776 92.842 222.416 89.874 222.279 105.809 C 221.819 159.502 193.434 211.077 193.434 211.077 C 182.45 211.077 182.121 211.782 172.015 209.808 Z" transform="matrix(-1, 0, 0, -1, 398.076462, 305.809151)"/>
  <path stroke="var(--color-black)" fill="var(--alt-color)" d="M 176.609 203.45 C 177.75 204.17 189.427 204.311 189.427 203.591 C 191.085 197.809 214.785 144.355 217.034 103.09 C 217.684 91.062 201.351 91.953 200.033 102.266 C 199.492 129.908 184.348 189.138 176.609 203.45 Z" transform="matrix(-1, 0, 0, -1, 397.955582, 298.663132)"/>
  <path stroke="var(--color-black)" fill="var(--color-yellow)" d="M 74.93 403.768 C 74.943 403.778 97.691 351.237 97.691 297.541 C 97.691 286.802 125.331 283.834 125.194 299.769 C 124.734 353.462 96.349 405.037 96.349 405.037 C 85.365 405.037 85.036 405.742 74.93 403.768 Z"/>
  <path stroke="var(--color-black)" fill="var(--alt-color)" d="M 79.646 404.556 C 80.787 405.276 92.464 405.417 92.464 404.697 C 94.122 398.915 117.822 345.461 120.071 304.196 C 120.721 292.168 104.388 293.059 103.07 303.372 C 102.529 331.014 87.385 390.244 79.646 404.556 Z"/>
</svg>